<svg xmlns="http://www.w3.org/2000/svg" viewBox="0 0 512 512" role="img" aria-labelledby="t d">
<title id="t">RogueDashboard</title><desc id="d">Premium RD monogram for RogueDashboard</desc>
<defs>
  <radialGradient id="bg" cx="50%" cy="42%" r="70%"><stop offset="0" stop-color="#171d2a"/><stop offset=".55" stop-color="#0a0f18"/><stop offset="1" stop-color="#05070b"/></radialGradient>
  <linearGradient id="ring" x1="72" y1="72" x2="440" y2="440"><stop stop-color="#9b5cff"/><stop offset=".38" stop-color="#6d45ff"/><stop offset=".72" stop-color="#2f8cff"/><stop offset="1" stop-color="#24d6ff"/></linearGradient>
  <linearGradient id="steel" x1="155" y1="122" x2="350" y2="392"><stop stop-color="#ffffff"/><stop offset=".12" stop-color="#dce3ef"/><stop offset=".32" stop-color="#7d8796"/><stop offset=".49" stop-color="#f2f5f9"/><stop offset=".68" stop-color="#5d6674"/><stop offset=".84" stop-color="#cfd6df"/><stop offset="1" stop-color="#ffffff"/></linearGradient>
  <linearGradient id="edge" x1="140" y1="140" x2="390" y2="390"><stop stop-color="#c084fc"/><stop offset=".55" stop-color="#7c3aed"/><stop offset="1" stop-color="#22d3ee"/></linearGradient>
  <pattern id="hex" width="20" height="17.32" patternUnits="userSpaceOnUse"><path d="M5 0h10l5 8.66-5 8.66H5L0 8.66z" fill="none" stroke="#6b7280" stroke-opacity=".12" stroke-width="1"/></pattern>
  <filter id="glow" x="-40%" y="-40%" width="180%" height="180%"><feGaussianBlur stdDeviation="5" result="b"/><feMerge><feMergeNode in="b"/><feMergeNode in="SourceGraphic"/></feMerge></filter>
  <filter id="shadow" x="-30%" y="-30%" width="160%" height="160%"><feDropShadow dx="0" dy="9" stdDeviation="8" flood-color="#000" flood-opacity=".55"/></filter>
</defs>
<rect width="512" height="512" rx="112" fill="#04060a"/>
<circle cx="256" cy="256" r="222" fill="#090d14" stroke="#171d28" stroke-width="14"/>
<circle cx="256" cy="256" r="197" fill="url(#bg)" stroke="#2a3342" stroke-width="4"/>
<circle cx="256" cy="256" r="181" fill="none" stroke="url(#ring)" stroke-width="10" filter="url(#glow)"/>
<circle cx="256" cy="256" r="160" fill="url(#hex)" stroke="#252e3b" stroke-width="3"/>
<g opacity=".9"><path d="M256 77v27M256 408v27M77 256h27M408 256h27M130 130l19 19M363 363l19 19M382 130l-19 19M149 363l-19 19" stroke="#6d7a8d" stroke-width="4" stroke-linecap="round"/></g>
<g filter="url(#shadow)">
  <path d="M137 139h124c65 0 108 36 108 92 0 39-20 67-56 82l72 76h-74l-61-68h-42v68h-71V139zm71 58v67h50c27 0 43-12 43-34 0-21-16-33-43-33h-50z" fill="#222936" stroke="url(#edge)" stroke-width="8" stroke-linejoin="round"/>
  <path d="M144 132h124c65 0 108 36 108 92 0 39-20 67-56 82l72 76h-74l-61-68h-42v68h-71V132zm71 58v67h50c27 0 43-12 43-34 0-21-16-33-43-33h-50z" fill="url(#steel)" stroke="#eef2f7" stroke-opacity=".5" stroke-width="2.5" stroke-linejoin="round"/>
  <path d="M291 198h57c68 0 111 36 111 92s-43 92-111 92h-57v-61h57c27 0 42-11 42-31s-15-31-42-31h-57v-61z" fill="#162438" stroke="url(#edge)" stroke-width="8" stroke-linejoin="round"/>
  <path d="M298 191h57c68 0 111 36 111 92s-43 92-111 92h-57v-61h57c27 0 42-11 42-31s-15-31-42-31h-57v-61z" fill="url(#steel)" stroke="#eef2f7" stroke-opacity=".45" stroke-width="2.5" stroke-linejoin="round"/>
  <path d="M306 204h49c50 0 83 22 91 60" fill="none" stroke="#ffffff" stroke-opacity=".55" stroke-width="5" stroke-linecap="round"/>
</g>
<circle cx="256" cy="256" r="181" fill="none" stroke="#ffffff" stroke-opacity=".08" stroke-width="2"/>
</svg>