<svg xmlns="http://www.w3.org/2000/svg" viewBox="0 0 128 128" role="img" aria-label="RogueDashboard"><defs><linearGradient id="g" x1="15" y1="12" x2="115" y2="117"><stop stop-color="#a855f7"/><stop offset=".6" stop-color="#6366f1"/><stop offset="1" stop-color="#22d3ee"/></linearGradient><linearGradient id="s" x1="35" y1="30" x2="92" y2="100"><stop stop-color="#fff"/><stop offset=".28" stop-color="#9aa5b5"/><stop offset=".52" stop-color="#fff"/><stop offset=".75" stop-color="#606b7a"/><stop offset="1" stop-color="#e6ebf2"/></linearGradient></defs><rect width="128" height="128" rx="28" fill="#070a10"/><circle cx="64" cy="64" r="51" fill="#0b1018" stroke="#222b38" stroke-width="5"/><circle cx="64" cy="64" r="44" fill="none" stroke="url(#g)" stroke-width="4"/><path d="M31 31h33c18 0 29 10 29 25 0 11-6 19-15 23l19 20H78L62 81H50v18H31V31zm19 15v20h13c8 0 12-4 12-10 0-7-4-10-12-10H50z" fill="url(#s)"/><path d="M70 48h16c19 0 31 10 31 25s-12 25-31 25H70V82h16c8 0 12-3 12-9s-4-9-12-9H70V48z" fill="url(#s)" stroke="url(#g)" stroke-width="2"/></svg>