<svg xmlns="http://www.w3.org/2000/svg" width="1200" height="420" viewBox="0 0 1200 420" role="img" aria-labelledby="t d">
<title id="t">Rogue Dashboard</title><desc id="d">Docker and Podman container command centre</desc>
<defs><linearGradient id="g" x1="0" y1="0" x2="1" y2="1"><stop stop-color="#7c5cff"/><stop offset="1" stop-color="#00e5ff"/></linearGradient><radialGradient id="bg"><stop stop-color="#172038"/><stop offset="1" stop-color="#080b12"/></radialGradient><filter id="glow"><feGaussianBlur stdDeviation="12" result="b"/><feMerge><feMergeNode in="b"/><feMergeNode in="SourceGraphic"/></feMerge></filter></defs>
<rect width="1200" height="420" rx="34" fill="url(#bg)"/><g opacity=".14" stroke="#00e5ff"><path d="M0 70h1200M0 140h1200M0 210h1200M0 280h1200M0 350h1200"/><path d="M100 0v420M200 0v420M300 0v420M400 0v420M500 0v420M600 0v420M700 0v420M800 0v420M900 0v420M1000 0v420M1100 0v420"/></g>
<g transform="translate(78 73)"><rect width="178" height="178" rx="48" fill="#101522" stroke="url(#g)" stroke-width="4"/><circle cx="89" cy="89" r="49" fill="none" stroke="url(#g)" stroke-width="9" filter="url(#glow)"/><path d="M89 33v24M89 121v24M33 89h24M121 89h24" stroke="#00e5ff" stroke-width="8" stroke-linecap="round"/><text x="89" y="104" text-anchor="middle" font-family="Inter,Segoe UI,sans-serif" font-size="46" font-weight="900" fill="#f5f7fb">RD</text></g>
<text x="305" y="128" font-family="Inter,Segoe UI,sans-serif" font-size="58" font-weight="800" fill="#f5f7fb">Rogue Dashboard</text>
<text x="307" y="170" font-family="Inter,Segoe UI,sans-serif" font-size="23" fill="#aab4c8">Local-first Docker + Podman command centre</text>
<g transform="translate(307 215)" font-family="Inter,Segoe UI,sans-serif"><rect width="180" height="52" rx="18" fill="#7c5cff" fill-opacity=".14" stroke="#7c5cff"/><text x="90" y="33" text-anchor="middle" fill="#ddd6ff" font-size="17">Docker Engine</text><rect x="195" width="180" height="52" rx="18" fill="#00e5ff" fill-opacity=".11" stroke="#00e5ff"/><text x="285" y="33" text-anchor="middle" fill="#c8fbff" font-size="17">Podman Native</text><rect x="390" width="240" height="52" rx="18" fill="#fff" fill-opacity=".05" stroke="#fff" stroke-opacity=".15"/><text x="510" y="33" text-anchor="middle" fill="#d7deed" font-size="17">Restricted Engine Agent</text></g>
<text x="307" y="319" font-family="Inter,Segoe UI,sans-serif" font-size="18" fill="#8f9ab0">Visibility • Health • Metrics • Safe lifecycle controls • Themes • Pages</text>
</svg>